# xmcd
#
# Track frame offsets:
#	150
#	13491
#	30274
#	41373
#	58172
#	67683
#	87581
#	101253
#	117055
#	132078
#	148534
#	162316
#	181642
#	193664
#	206598
#	220906
#	234593
#	246428
#	257079
#	271710
#
# Disc length: 3840 seconds
#
# Revision: 1
# Processed by: cddbd v1.5.2PL0 Copyright (c) Steve Scherf et al.
# Submitted via: audiograbber 1.83.01
#
DISCID=120efe14
DTITLE=Various Artist - SA Country Music Hall of Fame Vol 2
DYEAR=2003
DGENRE=Pop
TTITLE0=Lance James - Della and the dealer
TTITLE1=Bobby Angel - Don Junior
TTITLE2=Gene Rockwell - Busted
TTITLE3=Billy Forrest - Our sweet precious love
TTITLE4=Sally Vaughn - Now I lay me down to weep
TTITLE5=Cora Marie - Mamma Leonie
TTITLE6=Barbara Ray - D.I.V.O.R.C.E.
TTITLE7=Jody Wayne - The wonder of your love
TTITLE8=Tommy Dell - Maria
TTITLE9=Kupido - Was ek maar 'n digter
TTITLE10=Clive Bruce - If you've got nothing on tonight
TTITLE11=Caroline du Preez - Nobody's child
TTITLE12=Virginia Lee - The end of the world
TTITLE13=John Edmond - Toy train
TTITLE14=Larry W Furey - Overnight success
TTITLE15=Neen Manderson - Passionate kisses
TTITLE16=Group 2 - You're my best friend
TTITLE17=Sean Frew - Nashville bound
TTITLE18=Gert van Tonder - Jy is so wonderlik
TTITLE19=Deane Anthony - If tomorrow never comes
EXTD=
EXTT0=
EXTT1=
EXTT2=
EXTT3=
EXTT4=
EXTT5=
EXTT6=
EXTT7=
EXTT8=
EXTT9=
EXTT10=
EXTT11=
EXTT12=
EXTT13=
EXTT14=
EXTT15=
EXTT16=
EXTT17=
EXTT18=
EXTT19=
PLAYORDER=
